<?xml version="1.0" encoding="UTF-8"?>
<svg xmlns="http://www.w3.org/2000/svg" xmlns:xlink="http://www.w3.org/1999/xlink" width="1157.98pt" height="227.3pt" viewBox="0 0 1157.98 227.3" version="1.1">
<defs>
<clipPath id="clip1">
  <path d="M 651 59 L 1157.980469 59 L 1157.980469 184 L 651 184 Z M 651 59 "/>
</clipPath>
<clipPath id="clip2">
  <path d="M 0 0 L 258 0 L 258 227.300781 L 0 227.300781 Z M 0 0 "/>
</clipPath>
</defs>
<g id="surface1">
<path style=" stroke:none;fill-rule:nonzero;fill:rgb(31.762695%,68.554688%,19.993591%);fill-opacity:1;" d="M 1101 183.316406 L 1073.878906 183.316406 L 1073.878906 109.980469 C 1073.53125 99.371094 1082.191406 90.285156 1092.980469 90.285156 L 1100.929688 90.285156 Z M 1037.808594 136.917969 C 1037.808594 123.25 1026.101563 113.332031 1015.390625 113.332031 C 985.621094 113.332031 984.679688 160.472656 1015.128906 160.472656 L 1015.128906 160.535156 C 1026.191406 160.535156 1037.808594 150.539063 1037.808594 136.917969 M 993.53125 59.628906 L 993.53125 97.902344 C 1016.21875 75.285156 1066.011719 89.335938 1066.011719 136.308594 C 1066.011719 186.539063 1011.328125 199.496094 993.003906 173.269531 L 993.003906 183.183594 L 965.894531 183.183594 L 965.894531 78.863281 C 966.136719 68.335938 974.785156 59.769531 985.324219 59.628906 Z M 930.34375 136.917969 C 930.34375 123.25 918.628906 113.332031 907.914063 113.332031 C 878.191406 113.332031 877.148438 160.472656 907.660156 160.472656 L 907.660156 160.535156 C 918.726563 160.535156 930.34375 150.539063 930.34375 136.917969 M 886.261719 59.628906 L 886.261719 97.902344 C 908.898438 75.308594 958.738281 89.296875 958.738281 136.308594 C 958.738281 186.558594 904.03125 199.480469 885.738281 173.269531 L 885.738281 183.183594 L 858.023438 183.183594 L 858.023438 78.863281 C 858.277344 68.210938 867.140625 59.589844 877.789063 59.628906 Z M 795.644531 111.367188 C 764.546875 111.367188 765.246094 160.472656 795.46875 160.472656 C 826.226563 160.472656 826.535156 111.367188 795.644531 111.367188 M 846.347656 183.316406 C 833.371094 183.316406 818.640625 186.25 818.640625 173.402344 L 818.3125 173.402344 C 806.289063 196.773438 744.71875 191.507813 744.71875 136.898438 C 744.71875 88.503906 799.546875 73.480469 818.3125 100.527344 L 818.640625 100.527344 C 818.640625 87.621094 833.519531 90.613281 846.347656 90.613281 "/>
<path style=" stroke:none;fill-rule:evenodd;fill:rgb(31.762695%,68.554688%,19.993591%);fill-opacity:1;" d="M 1087.46875 85.300781 C 1068.308594 85.300781 1068.289063 56.277344 1087.46875 56.277344 C 1106.628906 56.277344 1106.648438 85.300781 1087.46875 85.300781 "/>
<g clip-path="url(#clip1)" clip-rule="nonzero">
<path style=" stroke:none;fill-rule:nonzero;fill:rgb(31.762695%,68.554688%,19.993591%);fill-opacity:1;" d="M 1153.96875 155.347656 C 1151.039063 155.234375 1148.171875 154.476563 1145.578125 153.117188 C 1138.289063 149.15625 1139.789063 145.257813 1139.789063 111.6875 L 1157.851563 111.6875 L 1157.851563 90.023438 L 1139.789063 90.023438 L 1139.789063 59.628906 L 1131.589844 59.628906 C 1120.78125 59.628906 1111.890625 68.519531 1111.890625 79.324219 C 1111.890625 144.113281 1111.878906 142.699219 1111.878906 142.699219 C 1111.878906 161.914063 1125.390625 183.578125 1157.980469 183.578125 L 1157.980469 155.347656 Z M 692.597656 121.933594 L 681.765625 121.933594 L 681.765625 87.59375 C 692.558594 87.59375 713.273438 85.386719 713.273438 104.269531 C 713.613281 114.421875 707.46875 121.933594 692.597656 121.933594 M 731.988281 155.347656 C 723.433594 154.828125 720.324219 150.164063 715.3125 143.722656 L 713.074219 141.101563 C 747.097656 134.832031 753.890625 90.117188 728.703125 68.492188 C 714.84375 57.820313 701.550781 59.5625 651.234375 59.5625 L 651.234375 183.316406 L 681.5625 183.316406 L 681.5625 146.289063 C 706.269531 177.34375 708.328125 183.316406 744.257813 183.316406 L 744.257813 155.347656 "/>
</g>
<path style=" stroke:none;fill-rule:nonzero;fill:rgb(14.501953%,30.979919%,9.008789%);fill-opacity:1;" d="M 318.070313 87.59375 L 290.035156 87.59375 C 290.035156 77.78125 290.019531 78.007813 290.019531 78.007813 C 290.019531 67.90625 298.234375 59.167969 309.007813 59.167969 L 376.757813 59.167969 L 376.757813 87.136719 L 349.644531 87.136719 L 349.644531 183.316406 L 337.828125 183.316406 C 327.023438 183.316406 318.132813 174.425781 318.132813 163.617188 "/>
<path style=" stroke:none;fill-rule:nonzero;fill:rgb(14.501953%,30.979919%,9.008789%);fill-opacity:1;" d="M 551.054688 158.570313 L 551.054688 183.316406 L 579.019531 183.316406 L 579.019531 139.265625 C 595.296875 163.242188 601.207031 183.511719 643.949219 183.511719 L 643.949219 158.957031 C 633.070313 158.957031 620.214844 158.191406 613.617188 147.867188 C 611.253906 144.160156 605.121094 135.371094 602.847656 131.386719 L 637.710938 90.546875 L 604.886719 90.546875 L 579.21875 123.964844 L 578.890625 123.964844 L 578.890625 78.863281 C 578.890625 67.136719 569.398438 59.179688 559.195313 59.628906 L 551.054688 59.628906 Z M 514.097656 116.484375 C 514.097656 99.886719 478.027344 116.132813 511.796875 125.742188 C 527.488281 130.070313 544.160156 134.738281 544.160156 154.761719 C 544.160156 194.902344 473.226563 198.402344 468.796875 155.285156 L 496.304688 155.285156 C 497.105469 167.820313 516.394531 165.976563 516.394531 157.117188 C 516.394531 142.25 469.929688 147.007813 469.78125 118.128906 C 469.78125 80.300781 537.253906 74.742188 541.207031 116.683594 Z M 410.941406 111.367188 C 379.890625 111.367188 380.394531 160.042969 410.761719 160.472656 C 441.476563 160.472656 441.917969 111.367188 410.941406 111.367188 M 461.640625 183.316406 C 448.660156 183.316406 433.9375 186.25 433.9375 173.402344 L 433.28125 173.402344 C 421.261719 196.773438 359.6875 191.507813 359.6875 136.898438 C 359.6875 88.488281 414.515625 73.492188 433.28125 100.527344 L 433.609375 100.527344 C 433.609375 87.621094 448.492188 90.613281 461.3125 90.613281 "/>
<g clip-path="url(#clip2)" clip-rule="nonzero">
<path style=" stroke:none;fill-rule:nonzero;fill:rgb(31.762695%,68.554688%,19.993591%);fill-opacity:1;" d="M 252.089844 103.417969 C 226.734375 61.332031 220.121094 93.089844 196.289063 53.066406 C 179.53125 24.839844 141.773438 -11.84375 119.28125 3.695313 L 113.964844 7.503906 C 109.578125 6.148438 105.351563 6.253906 101.753906 9.015625 C 99.117188 11.277344 97.871094 14.777344 98.472656 18.203125 C 99.757813 24.023438 102.589844 30.417969 113.3125 40.328125 C 79.140625 34.117188 44.203125 47.300781 22.652344 74.53125 C 0.617188 74.53125 -5.820313 96.058594 5.449219 108.800781 C -10.828125 169.160156 35.589844 227.300781 96.214844 227.300781 C 130.535156 227.300781 162.230469 208.5 178.695313 178.390625 C 206.910156 179.980469 209.457031 157.316406 188.675781 150.554688 C 191.261719 136.796875 184.566406 149.917969 220.1875 146.550781 C 249.722656 144.746094 267.257813 128.101563 252.089844 103.417969 "/>
</g>
<path style=" stroke:none;fill-rule:nonzero;fill:rgb(100%,100%,100%);fill-opacity:1;" d="M 223.796875 107.15625 C 220.988281 106.773438 217.449219 104.574219 216.640625 101.25 C 216.546875 100.863281 216.503906 100.460938 216.503906 100.066406 C 216.503906 97.289063 218.78125 95.007813 221.558594 95.007813 C 221.628906 95.007813 221.695313 95.015625 221.761719 95.015625 C 225.328125 95.160156 228.355469 97.753906 229.046875 101.25 C 229.148438 101.644531 229.152344 102.042969 229.195313 102.445313 C 229.503906 105.390625 226.503906 107.53125 223.796875 107.15625 M 246.445313 107.15625 C 223.203125 68.554688 215.199219 96.394531 190.382813 56.609375 C 160.867188 8.40625 124.757813 1.65625 124.757813 9.144531 C 124.757813 9.144531 165.527344 31.003906 185.0625 68.492188 C 185.507813 69.191406 184.433594 69.832031 184.011719 69.152344 C 167.207031 47.878906 115.28125 7.570313 106.351563 14.660156 C 99 20.503906 138.0625 57.59375 169.898438 73.742188 C 172.632813 75.074219 167.902344 82.355469 155.851563 81.949219 C 139.046875 81.949219 123.027344 57.136719 86.65625 56.671875 C 64.328125 56.378906 42.984375 66.003906 28.425781 82.933594 C 28.164063 83.152344 27.769531 83.152344 27.503906 82.933594 C 12.105469 74.8125 -1.273438 96.613281 13.128906 106.242188 C 13.6875 106.574219 13.9375 107.261719 13.71875 107.882813 C -9.007813 178.890625 68.472656 234.351563 125.78125 197.03125 C 153.734375 180.144531 150.152344 158.195313 112.191406 173.074219 C 112.113281 173.09375 112.027344 173.105469 111.953125 173.105469 C 111.167969 173.105469 110.726563 172.164063 111.273438 171.5625 C 137.953125 143.828125 117.910156 97.640625 79.8125 97.640625 L 79.761719 97.640625 C 61.953125 96.589844 45.402344 107.25 38.996094 123.902344 C 38.875 124.363281 38.457031 124.691406 37.976563 124.691406 C 37.402344 124.691406 36.925781 124.21875 36.925781 123.640625 C 36.925781 123.554688 36.941406 123.460938 36.960938 123.378906 C 41.496094 102.597656 59.570313 87.335938 80.816406 86.347656 C 118.746094 84.066406 144.289063 125.738281 124.144531 158.570313 C 123.308594 159.753906 124.695313 161.285156 125.980469 160.535156 C 133.945313 156.101563 140.128906 148.957031 140.128906 148.957031 C 140.316406 148.957031 140.492188 149.035156 140.621094 149.175781 C 164.253906 175.042969 194.515625 175.433594 195.304688 165.457031 C 196.226563 154.035156 167.007813 161.453125 165.171875 133.097656 C 165.171875 132.53125 165.828125 132.242188 166.222656 132.570313 C 170.003906 135.671875 175.714844 133.320313 176.269531 128.5 C 176.355469 128.011719 176.933594 127.8125 177.320313 128.101563 C 189.921875 140.378906 202.722656 141.230469 220.1875 139.917969 C 245.132813 138.539063 256.753906 124.820313 246.445313 107.15625 "/>
</g>
</svg>
